<mxfile host="Electron" agent="Mozilla/5.0 (Windows NT 10.0; Win64; x64) AppleWebKit/537.36 (KHTML, like Gecko) draw.io/26.0.16 Chrome/132.0.6834.196 Electron/34.2.0 Safari/537.36" version="26.0.16">
  <diagram name="Page-1" id="2YBvvXClWsGukQMizWep">
    <mxGraphModel dx="989" dy="611" grid="1" gridSize="10" guides="1" tooltips="1" connect="1" arrows="1" fold="1" page="1" pageScale="1" pageWidth="850" pageHeight="1100" math="0" shadow="0">
      <root>
        <mxCell id="0" />
        <mxCell id="1" parent="0" />
        <mxCell id="aM9ryv3xv72pqoxQDRHE-1" value="t :Gombatest" style="shape=umlLifeline;perimeter=lifelinePerimeter;whiteSpace=wrap;html=1;container=0;dropTarget=0;collapsible=0;recursiveResize=0;outlineConnect=0;portConstraint=eastwest;newEdgeStyle={&quot;edgeStyle&quot;:&quot;elbowEdgeStyle&quot;,&quot;elbow&quot;:&quot;vertical&quot;,&quot;curved&quot;:0,&quot;rounded&quot;:0};" parent="1" vertex="1">
          <mxGeometry x="140" y="40" width="100" height="200" as="geometry" />
        </mxCell>
        <mxCell id="aM9ryv3xv72pqoxQDRHE-2" value="" style="html=1;points=[];perimeter=orthogonalPerimeter;outlineConnect=0;targetShapes=umlLifeline;portConstraint=eastwest;newEdgeStyle={&quot;edgeStyle&quot;:&quot;elbowEdgeStyle&quot;,&quot;elbow&quot;:&quot;vertical&quot;,&quot;curved&quot;:0,&quot;rounded&quot;:0};" parent="aM9ryv3xv72pqoxQDRHE-1" vertex="1">
          <mxGeometry x="45" y="70" width="10" height="110" as="geometry" />
        </mxCell>
        <mxCell id="aM9ryv3xv72pqoxQDRHE-5" value="h :Hatszog" style="shape=umlLifeline;perimeter=lifelinePerimeter;whiteSpace=wrap;html=1;container=0;dropTarget=0;collapsible=0;recursiveResize=0;outlineConnect=0;portConstraint=eastwest;newEdgeStyle={&quot;edgeStyle&quot;:&quot;elbowEdgeStyle&quot;,&quot;elbow&quot;:&quot;vertical&quot;,&quot;curved&quot;:0,&quot;rounded&quot;:0};" parent="1" vertex="1">
          <mxGeometry x="270" y="40" width="100" height="200" as="geometry" />
        </mxCell>
        <mxCell id="Swqfz3uCfu7XpZo9XU_A-12" value="t&amp;nbsp;&lt;span style=&quot;background-color: transparent; color: light-dark(rgb(0, 0, 0), rgb(255, 255, 255));&quot;&gt;:Tekton&lt;/span&gt;" style="shape=umlLifeline;perimeter=lifelinePerimeter;whiteSpace=wrap;html=1;container=0;dropTarget=0;collapsible=0;recursiveResize=0;outlineConnect=0;portConstraint=eastwest;newEdgeStyle={&quot;edgeStyle&quot;:&quot;elbowEdgeStyle&quot;,&quot;elbow&quot;:&quot;vertical&quot;,&quot;curved&quot;:0,&quot;rounded&quot;:0};size=40;" parent="1" vertex="1">
          <mxGeometry x="490" y="40" width="250" height="200" as="geometry" />
        </mxCell>
        <mxCell id="Swqfz3uCfu7XpZo9XU_A-11" value="sporaSzoras()" style="html=1;verticalAlign=bottom;endArrow=block;edgeStyle=elbowEdgeStyle;elbow=vertical;curved=0;rounded=0;" parent="Swqfz3uCfu7XpZo9XU_A-12" edge="1">
          <mxGeometry x="0.0017" relative="1" as="geometry">
            <mxPoint x="-295" y="110" as="sourcePoint" />
            <Array as="points">
              <mxPoint x="-200" y="110" />
              <mxPoint x="-215" y="110" />
            </Array>
            <mxPoint x="-175.0000000000001" y="110" as="targetPoint" />
            <mxPoint as="offset" />
          </mxGeometry>
        </mxCell>
        <mxCell id="Swqfz3uCfu7XpZo9XU_A-23" value="" style="html=1;points=[];perimeter=orthogonalPerimeter;outlineConnect=0;targetShapes=umlLifeline;portConstraint=eastwest;newEdgeStyle={&quot;edgeStyle&quot;:&quot;elbowEdgeStyle&quot;,&quot;elbow&quot;:&quot;vertical&quot;,&quot;curved&quot;:0,&quot;rounded&quot;:0};" parent="Swqfz3uCfu7XpZo9XU_A-12" vertex="1">
          <mxGeometry x="45" y="125" width="10" height="40" as="geometry" />
        </mxCell>
        <mxCell id="Swqfz3uCfu7XpZo9XU_A-34" value="" style="edgeStyle=elbowEdgeStyle;rounded=0;orthogonalLoop=1;jettySize=auto;html=1;elbow=vertical;curved=0;endArrow=open;endFill=0;dashed=1;" parent="Swqfz3uCfu7XpZo9XU_A-12" edge="1">
          <mxGeometry relative="1" as="geometry">
            <mxPoint x="189.5" y="155" as="sourcePoint" />
            <mxPoint x="55" y="155" as="targetPoint" />
            <Array as="points">
              <mxPoint x="110" y="155" />
            </Array>
          </mxGeometry>
        </mxCell>
        <mxCell id="Swqfz3uCfu7XpZo9XU_A-13" value=":Spora" style="shape=umlLifeline;perimeter=lifelinePerimeter;whiteSpace=wrap;html=1;container=0;dropTarget=0;collapsible=0;recursiveResize=0;outlineConnect=0;portConstraint=eastwest;newEdgeStyle={&quot;edgeStyle&quot;:&quot;elbowEdgeStyle&quot;,&quot;elbow&quot;:&quot;vertical&quot;,&quot;curved&quot;:0,&quot;rounded&quot;:0};size=20;" parent="Swqfz3uCfu7XpZo9XU_A-12" vertex="1">
          <mxGeometry x="160" y="125" width="60" height="40" as="geometry" />
        </mxCell>
        <mxCell id="Swqfz3uCfu7XpZo9XU_A-15" value="sporaSzoras()" style="html=1;verticalAlign=bottom;endArrow=block;endSize=8;edgeStyle=elbowEdgeStyle;elbow=vertical;curved=0;rounded=0;endFill=1;" parent="Swqfz3uCfu7XpZo9XU_A-12" source="Swqfz3uCfu7XpZo9XU_A-16" target="Swqfz3uCfu7XpZo9XU_A-23" edge="1">
          <mxGeometry x="0.0409" relative="1" as="geometry">
            <mxPoint x="-65" y="127.5" as="targetPoint" />
            <Array as="points">
              <mxPoint x="-90" y="125" />
              <mxPoint x="-50" y="122.5" />
              <mxPoint x="-100" y="112.5" />
            </Array>
            <mxPoint x="-170" y="127.5" as="sourcePoint" />
            <mxPoint as="offset" />
          </mxGeometry>
        </mxCell>
        <mxCell id="Swqfz3uCfu7XpZo9XU_A-17" value="" style="html=1;verticalAlign=bottom;endArrow=open;endSize=8;edgeStyle=elbowEdgeStyle;elbow=vertical;curved=0;rounded=0;" parent="Swqfz3uCfu7XpZo9XU_A-12" target="Swqfz3uCfu7XpZo9XU_A-16" edge="1">
          <mxGeometry x="0.0409" relative="1" as="geometry">
            <mxPoint x="160" y="123" as="targetPoint" />
            <Array as="points" />
            <mxPoint x="-170" y="127.5" as="sourcePoint" />
            <mxPoint as="offset" />
          </mxGeometry>
        </mxCell>
        <mxCell id="Swqfz3uCfu7XpZo9XU_A-16" value="" style="html=1;points=[];perimeter=orthogonalPerimeter;outlineConnect=0;targetShapes=umlLifeline;portConstraint=eastwest;newEdgeStyle={&quot;edgeStyle&quot;:&quot;elbowEdgeStyle&quot;,&quot;elbow&quot;:&quot;vertical&quot;,&quot;curved&quot;:0,&quot;rounded&quot;:0};" parent="Swqfz3uCfu7XpZo9XU_A-12" vertex="1">
          <mxGeometry x="-175" y="110" width="10" height="60" as="geometry" />
        </mxCell>
        <mxCell id="Swqfz3uCfu7XpZo9XU_A-19" value="&amp;lt;&amp;lt;create&amp;gt;&amp;gt;" style="html=1;verticalAlign=bottom;endArrow=open;endSize=6;edgeStyle=elbowEdgeStyle;elbow=vertical;curved=0;rounded=0;endFill=0;dashed=1;" parent="Swqfz3uCfu7XpZo9XU_A-12" source="Swqfz3uCfu7XpZo9XU_A-23" edge="1">
          <mxGeometry x="0.0409" relative="1" as="geometry">
            <mxPoint x="160" y="132" as="targetPoint" />
            <Array as="points">
              <mxPoint x="127.5" y="132.16000000000003" />
              <mxPoint x="167.5" y="129.66000000000003" />
              <mxPoint x="117.5" y="119.65999999999997" />
            </Array>
            <mxPoint x="50" y="132.16000000000003" as="sourcePoint" />
            <mxPoint as="offset" />
          </mxGeometry>
        </mxCell>
        <mxCell id="5z13YSDL-ww-2JGOt4z1-1" value="" style="endArrow=open;html=1;rounded=0;dashed=1;endFill=0;" parent="Swqfz3uCfu7XpZo9XU_A-12" edge="1">
          <mxGeometry relative="1" as="geometry">
            <mxPoint x="-175" y="170" as="sourcePoint" />
            <mxPoint x="-295" y="170" as="targetPoint" />
          </mxGeometry>
        </mxCell>
        <mxCell id="5z13YSDL-ww-2JGOt4z1-3" value="" style="endArrow=open;html=1;rounded=0;dashed=1;endFill=0;" parent="Swqfz3uCfu7XpZo9XU_A-12" edge="1">
          <mxGeometry relative="1" as="geometry">
            <mxPoint x="45" y="160" as="sourcePoint" />
            <mxPoint x="-165" y="160" as="targetPoint" />
          </mxGeometry>
        </mxCell>
        <mxCell id="HTJRJ0hIGoS5haAHL2GF-5" value="" style="shape=umlLifeline;perimeter=lifelinePerimeter;whiteSpace=wrap;html=1;container=1;dropTarget=0;collapsible=0;recursiveResize=0;outlineConnect=0;portConstraint=eastwest;newEdgeStyle={&quot;curved&quot;:0,&quot;rounded&quot;:0};participant=umlActor;" vertex="1" parent="1">
          <mxGeometry x="50" y="20" width="20" height="300" as="geometry" />
        </mxCell>
        <mxCell id="HTJRJ0hIGoS5haAHL2GF-6" value="g: Gombasz" style="text;html=1;align=center;verticalAlign=middle;resizable=0;points=[];autosize=1;strokeColor=none;fillColor=none;fontSize=12;labelBackgroundColor=default;" vertex="1" parent="1">
          <mxGeometry x="15" y="60" width="90" height="30" as="geometry" />
        </mxCell>
        <mxCell id="HTJRJ0hIGoS5haAHL2GF-7" value="sporaSzoras()" style="html=1;verticalAlign=bottom;endArrow=block;edgeStyle=elbowEdgeStyle;elbow=vertical;curved=0;rounded=0;entryX=0.5;entryY=0;entryDx=0;entryDy=0;entryPerimeter=0;" edge="1" parent="1" target="aM9ryv3xv72pqoxQDRHE-2">
          <mxGeometry x="0.0017" relative="1" as="geometry">
            <mxPoint x="60" y="110" as="sourcePoint" />
            <Array as="points">
              <mxPoint x="155" y="110" />
              <mxPoint x="140" y="110" />
            </Array>
            <mxPoint x="179.9999999999999" y="110" as="targetPoint" />
            <mxPoint as="offset" />
          </mxGeometry>
        </mxCell>
      </root>
    </mxGraphModel>
  </diagram>
</mxfile>
